Coordinates
version=1
nRows=9
nColumns=38
inDegrees=yes

Units are S.I. units (second, meters, Newtons, ...)
Angles are in degrees.

endheader
time	pelvis_tilt	pelvis_list	pelvis_rotation	pelvis_tx	pelvis_ty	pelvis_tz	hip_flexion_r	hip_adduction_r	hip_rotation_r	knee_angle_r	ankle_angle_r	subtalar_angle_r	mtp_angle_r	hip_flexion_l	hip_adduction_l	hip_rotation_l	knee_angle_l	ankle_angle_l	subtalar_angle_l	mtp_angle_l	lumbar_extension	lumbar_bending	lumbar_rotation	arm_flex_r	arm_add_r	arm_rot_r	elbow_flex_r	pro_sup_r	wrist_flex_r	wrist_dev_r	arm_flex_l	arm_add_l	arm_rot_l	elbow_flex_l	pro_sup_l	wrist_flex_l	wrist_dev_l
      2.87000000	     -4.99566281	     10.91036910	      4.41869116	     -0.23657457	      0.81204545	      2.59540554	     18.55768152	    -14.61937636	     -1.06845298	    -98.91638026	     -4.70770282	      0.00000000	      0.00000000	     23.18532156	     17.48751839	      3.22060682	    -41.68688669	     17.42931261	      0.00000000	      0.00000000	    -10.49359126	    -14.78128538	     -1.66666370	      2.30377738	    -13.09322282	     33.23508342	    106.27928860	     91.68616735	      0.00000000	      0.00000000	    -12.01112860	    -21.40209659	      3.12627139	    114.32560472	     95.01025922	      0.00000000	      0.00000000
      2.88000000	     -5.13265243	     10.12782888	      3.17835890	     -0.23823416	      0.81330116	      2.59843943	     22.33133833	    -12.89163132	      0.33023746	    -99.96503068	     -3.53080940	      0.00000000	      0.00000000	     20.45034939	     16.11891434	      3.08285419	    -40.01693783	     18.43195988	      0.00000000	      0.00000000	    -10.09320248	    -14.29900321	     -1.82240730	      0.19524587	    -13.96137508	     32.58236162	    106.23233487	     90.32266515	      0.00000000	      0.00000000	     -9.63821971	    -21.99971398	      3.60550965	    114.96640851	     95.81969318	      0.00000000	      0.00000000
      2.89000000	     -5.13633036	      9.04517655	      1.77184506	     -0.23879554	      0.81577729	      2.60091362	     25.58724279	    -10.79983275	      1.50651567	   -100.18062782	     -2.47357994	      0.00000000	      0.00000000	     17.30338105	     14.55254802	      2.92129232	    -38.11021284	     18.82478945	      0.00000000	      0.00000000	     -9.52508085	    -13.29692894	     -1.81271892	     -2.05214620	    -15.13685495	     31.84637147	    106.89820052	     88.71104536	      0.00000000	      0.00000000	     -7.76399612	    -22.20031507	      3.82866362	    115.89290585	     96.24756501	      0.00000000	      0.00000000
      2.90000000	     -5.15299290	      7.86019382	      0.49660700	     -0.23895971	      0.81989743	      2.60303471	     28.35477330	     -8.67463112	      2.29719967	    -99.52558049	     -1.52887786	      0.00000000	      0.00000000	     13.88710877	     12.93644700	      2.74550354	    -35.89607345	     18.53024690	      0.00000000	      0.00000000	     -8.85765689	    -11.99083911	     -1.85751331	     -4.46322130	    -16.57482470	     30.97797797	    108.08875461	     86.98537078	      0.00000000	      0.00000000	     -6.37288463	    -22.05939187	      3.85224599	    117.00416377	     96.16853703	      0.00000000	      0.00000000
      2.91000000	     -5.30478085	      6.63769752	     -0.51060703	     -0.23820467	      0.82507090	      2.60476670	     30.79854918	     -6.69968055	      2.66108702	    -98.00430407	     -0.68925823	      0.00000000	      0.00000000	     10.37982087	     11.32995756	      2.54931673	    -33.27693569	     17.38539599	      0.00000000	      0.00000000	     -8.09576751	    -10.57924835	     -2.10775672	     -7.00668037	    -18.15438783	     29.93956671	    109.55802612	     85.28664508	      0.00000000	      0.00000000	     -5.36245358	    -21.69282704	      3.76028619	    118.20184334	     95.57183198	      0.00000000	      0.00000000
      2.92000000	     -5.64100348	      5.40116948	     -1.27139657	     -0.23679661	      0.83105597	      2.60608813	     33.03923965	     -4.91405606	      2.65060290	    -95.69664014	      0.05681672	      0.00000000	      0.00000000	      6.91992275	      9.73864697	      2.31235704	    -30.27577544	     15.20284883	      0.00000000	      0.00000000	     -7.19630381	     -9.15554080	     -2.61000886	     -9.63476704	    -19.74186967	     28.71545450	    111.10371596	     83.72001395	      0.00000000	      0.00000000	     -4.61286922	    -21.22163780	      3.64482595	    119.41633994	     94.55852213	      0.00000000	      0.00000000
      2.93000000	     -6.13332622	      4.17101383	     -1.86935465	     -0.23531053	      0.83779601	      2.60719372	     35.08470676	     -3.27082040	      2.35665208	    -92.72177880	      0.71811020	      0.00000000	      0.00000000	      3.58845364	      8.13365031	      2.00107376	    -27.03236827	     11.84697889	      0.00000000	      0.00000000	     -6.15119666	     -7.71997794	     -3.32029960	    -12.31464743	    -21.24304821	     27.30911813	    112.61236109	     82.32742375	      0.00000000	      0.00000000	     -4.02469849	    -20.73336985	      3.58043527	    120.59896750	     93.30711299	      0.00000000	      0.00000000
      2.94000000	     -6.69597487	      2.93482036	     -2.35763471	     -0.23372449	      0.84500169	      2.60830332	     36.85572872	     -1.71012844	      1.85970844	    -89.17345206	      1.29091189	      0.00000000	      0.00000000	      0.41319947	      6.47941717	      1.56301426	    -23.71541919	      7.29914752	      0.00000000	      0.00000000	     -5.03263551	     -6.24120033	     -4.15309044	    -15.02582401	    -22.61616655	     25.72351104	    114.05480768	     81.08837658	      0.00000000	      0.00000000	     -3.52215846	    -20.26806842	      3.61513677	    121.71342303	     92.02217071	      0.00000000	      0.00000000
      2.95000000	     -7.23466464	      1.65861187	     -2.73566848	     -0.23186755	      0.85251396	      2.60949048	     38.23712572	     -0.20554589	      1.20210625	    -85.08865606	      1.75442400	      0.00000000	      0.00000000	     -2.62421990	      4.75515836	      0.93503709	    -20.45986167	      1.69626284	      0.00000000	      0.00000000	     -3.96627472	     -4.69978210	     -5.03888217	    -17.74208163	    -23.84986977	     23.94470850	    115.45126716	     79.94779263	      0.00000000	      0.00000000	     -3.04062868	    -19.82533205	      3.77991975	    122.73697607	     90.88425948	      0.00000000	      0.00000000
